<svg data-v-4ae9ff33="" version="1.0" xmlns="http://www.w3.org/2000/svg" xmlns:xlink="http://www.w3.org/1999/xlink" width="100%" height="100%" viewBox="0 0 340.000000 250.000000" preserveAspectRatio="xMidYMid meet" color-interpolation-filters="sRGB" class="el-tooltip" style="margin: auto;"><rect data-v-4ae9ff33="" x="0" y="0" width="100%" height="100%" fill="#fff" fill-opacity="1"></rect> <rect data-v-4ae9ff33="" x="0" y="0" width="100%" height="100%" fill="url(#watermark)" fill-opacity="1" class="watermarklayer"></rect> <g data-v-4ae9ff33="" fill="#FF5C59" class="newinitialsvg-g newinitialsvg" transform="translate(97.7055892944336,98.23583984375)"><g class="tp-name"><g transform="translate(0, 0)"><g fill="#FF5C59" transform="translate(0,3)"><path d="M42.47 0.94L42.47 0.94L43.24 0.94Q42.76 2.40 40.10 2.53L40.10 2.53L34.74 2.53Q30.96 2.15 30.61-1.38L30.61-1.38L30.61-14.17L26.54-14.17L26.54-12.55Q26.28-2.02 12.70 4.13L12.70 4.13L12.70 3.34Q21.95-4.09 22.46-11.80L22.46-11.80L22.46-14.17L20.87-14.17L16.79-13.36L16.79-30.15L20.87-29.33L23.44-29.33Q21.56-32.04 20.02-34.96L20.02-34.96L24.08-35.77Q25.03-31.18 25.51-29.33L25.51-29.33L31.64-29.33Q32.17-31.68 33.07-35.77L33.07-35.77L37.18-34.96Q35.60-31.99 33.71-29.33L33.71-29.33L36.36-29.33L40.41-30.15L40.41-13.36L36.36-14.17L34.74-14.17L34.74-0.59Q34.96 1.54 37.18 1.76L37.18 1.76L40.01 1.76Q42.03 1.76 42.47 0.94ZM11.47-28.04L13.91-28.56Q14.48-25.64 15.58-20.57L15.58-20.57L14.72-20.57Q14.04-21.56 12.79-23.40L12.79-23.40Q11.89-24.74 11.47-25.33L11.47-25.33L11.47 3.34L7.38 4.13L7.38-24.83Q7.08-24.13 6.31-22.10L6.31-22.10Q4.00-16.28 2.48-12.55L2.48-12.55L1.71-12.55Q3.14-21.34 4.13-27.77L4.13-27.77L7.38-27.14L7.38-35.77L11.47-34.96L11.47-28.04ZM36.36-28.56L20.87-28.56L20.87-14.94L36.36-14.94L36.36-28.56Z" transform="translate(-1.7138671875, 35.771484375)"></path></g></g><g transform="translate(45.5283203125, 0)"><g fill="#FF5C59" transform="translate(0,3)"><path d="M43.24-13.36L43.24-12.55L36.72-12.55L36.72-6.17Q36.54 3.19 27.00 4.13L27.00 4.13L27.00 3.34Q32.12 1.08 32.67-4.59L32.67-4.59L32.67-12.55L13.10-12.55L13.10-13.36L32.67-13.36L32.67-18.98L36.72-18.17L36.72-13.36L43.24-13.36ZM43.24-21.38L43.24-20.57L13.10-20.57L13.10-21.38L26.15-21.38L26.15-30.15L15.12-30.15L15.12-30.96L26.15-30.96L26.15-35.77L30.23-34.96L30.23-30.96L41.26-30.96L41.26-30.15L30.23-30.15L30.23-21.38L43.24-21.38ZM6.61-22.15L10.66-22.94L10.66-1.38L15.58-2.33L15.58-1.54L10.66-0.59L6.61 0.13L6.61-21.38L1.71-21.38L1.71-22.15L6.61-22.15ZM11.47-26.19L11.47-26.19L10.66-26.19Q8.46-29.58 4.94-34.96L4.94-34.96L9.05-35.77Q10.22-31.05 11.47-26.19ZM24.52-1.38L24.52-1.38L23.71-1.38Q20.10-5.32 16.33-9.40L16.33-9.40L20.43-10.17Q22.54-5.67 24.52-1.38Z" transform="translate(-1.7138671875, 35.771484375)"></path></g></g><g transform="translate(91.056640625, 0)" mask="url(#c1d6a05a50a17e116dd0c5d9b42bfd0a)"><rect fill="#FF5C59" x="0" y="-3" width="53.5283203125" height="53.5283203125" rx="26.76416015625"></rect> <g fill="#fff" transform="translate(7.6241607666015625,3)"><path d="M30.23-26.19L30.23-26.19L34.30-25.38Q28.34-21.64 23.44-18.68L23.44-18.68Q24.08-18.26 25.42-17.42L25.42-17.42Q31.90-13.23 36.72-10.17L36.72-10.17L36.72-9.40Q34.61-10.48 31.82-11.93L31.82-11.93L31.82-0.59L27.77-1.38L17.18-1.38L13.10-0.59L13.10-12.33Q10.26-10.57 8.24-9.40L8.24-9.40L8.24-10.17Q9.71-11.25 12.79-13.49L12.79-13.49Q17.42-16.83 19.53-18.41L19.53-18.41Q18.72-18.81 17.05-19.71L17.05-19.71Q15.49-20.52 14.72-20.92L14.72-20.92Q13.14-18.85 11.80-17.18L11.80-17.18Q11.07-16.28 10.66-15.75L10.66-15.75L10.66-16.61Q13.73-23.40 16.33-29.33L16.33-29.33L20.43-28.56Q20.26-28.34 19.93-27.91L19.93-27.91Q19.16-26.83 18.04-25.38L18.04-25.38L29.16-25.38Q29.84-25.84 30.23-26.19ZM15.58-32.59L37.57-32.59L41.62-33.40L41.62-6.17Q41.44 3.19 31.82 4.13L31.82 4.13L31.82 3.34Q37.05 1.08 37.57-4.59L37.57-4.59L37.57-31.77L15.58-31.77L15.58-32.59ZM3.34 4.13L3.34-26.19L7.38-25.38L7.38 3.34L3.34 4.13ZM27.77-11.80L17.18-11.80L17.18-2.20L27.77-2.20L27.77-11.80ZM27.77-12.55L29.84-13.01Q26.24-14.90 21.42-17.42L21.42-17.42Q19.12-16.02 15.34-13.69L15.34-13.69Q14.72-13.27 14.39-13.10L14.39-13.10L17.18-12.55L27.77-12.55ZM15.21-21.60L18.00-22.15Q18.00-22.15 21.60-19.84L21.60-19.84Q24.70-22.15 28.08-24.57L28.08-24.57L17.47-24.57Q17.05-23.99 16.24-22.94L16.24-22.94Q15.53-22.06 15.21-21.60L15.21-21.60ZM12.28-27.77L12.28-27.77L11.47-27.77Q8.24-31.31 4.94-34.96L4.94-34.96L9.05-35.77Q10.61-31.86 12.28-27.77Z" transform="translate(-3.33984375, 35.771484375)"></path></g></g></g> <!----></g><mask id="c1d6a05a50a17e116dd0c5d9b42bfd0a"><rect x="0" y="-3" width="53.5283203125" height="53.5283203125" rx="26.76416015625" fill="white"></rect> <g transform="translate(7.6241607666015625,3)" fill="black"><path d="M30.23-26.19L30.23-26.19L34.30-25.38Q28.34-21.64 23.44-18.68L23.44-18.68Q24.08-18.26 25.42-17.42L25.42-17.42Q31.90-13.23 36.72-10.17L36.72-10.17L36.72-9.40Q34.61-10.48 31.82-11.93L31.82-11.93L31.82-0.59L27.77-1.38L17.18-1.38L13.10-0.59L13.10-12.33Q10.26-10.57 8.24-9.40L8.24-9.40L8.24-10.17Q9.71-11.25 12.79-13.49L12.79-13.49Q17.42-16.83 19.53-18.41L19.53-18.41Q18.72-18.81 17.05-19.71L17.05-19.71Q15.49-20.52 14.72-20.92L14.72-20.92Q13.14-18.85 11.80-17.18L11.80-17.18Q11.07-16.28 10.66-15.75L10.66-15.75L10.66-16.61Q13.73-23.40 16.33-29.33L16.33-29.33L20.43-28.56Q20.26-28.34 19.93-27.91L19.93-27.91Q19.16-26.83 18.04-25.38L18.04-25.38L29.16-25.38Q29.84-25.84 30.23-26.19ZM15.58-32.59L37.57-32.59L41.62-33.40L41.62-6.17Q41.44 3.19 31.82 4.13L31.82 4.13L31.82 3.34Q37.05 1.08 37.57-4.59L37.57-4.59L37.57-31.77L15.58-31.77L15.58-32.59ZM3.34 4.13L3.34-26.19L7.38-25.38L7.38 3.34L3.34 4.13ZM27.77-11.80L17.18-11.80L17.18-2.20L27.77-2.20L27.77-11.80ZM27.77-12.55L29.84-13.01Q26.24-14.90 21.42-17.42L21.42-17.42Q19.12-16.02 15.34-13.69L15.34-13.69Q14.72-13.27 14.39-13.10L14.39-13.10L17.18-12.55L27.77-12.55ZM15.21-21.60L18.00-22.15Q18.00-22.15 21.60-19.84L21.60-19.84Q24.70-22.15 28.08-24.57L28.08-24.57L17.47-24.57Q17.05-23.99 16.24-22.94L16.24-22.94Q15.53-22.06 15.21-21.60L15.21-21.60ZM12.28-27.77L12.28-27.77L11.47-27.77Q8.24-31.31 4.94-34.96L4.94-34.96L9.05-35.77Q10.61-31.86 12.28-27.77Z" transform="translate(-3.33984375, 35.771484375)"></path></g></mask></svg>